<?xml version="1.0" standalone="no"?>
<!DOCTYPE svg PUBLIC "-//W3C//DTD SVG 20010904//EN"
 "http://www.w3.org/TR/2001/REC-SVG-20010904/DTD/svg10.dtd">
<svg version="1.0" xmlns="http://www.w3.org/2000/svg"
 width="502.000000pt" height="502.000000pt" viewBox="0 0 502.000000 502.000000"
 preserveAspectRatio="xMidYMid meet">
<metadata>
Created by potrace 1.14, written by Peter Selinger 2001-2017
</metadata>
<g transform="translate(0.000000,502.000000) scale(0.100000,-0.100000)"
fill="#000000" stroke="none">
<path d="M0 2510 l0 -2220 2510 0 2510 0 0 2220 0 2220 -2510 0 -2510 0 0
-2220z m4320 1853 c-1 -5 -74 -152 -163 -328 l-162 -320 -513 -3 -513 -2 3
-428 c5 -504 10 -547 97 -782 11 -30 23 -72 26 -93 8 -47 56 -104 107 -124 24
-10 40 -24 44 -38 3 -13 21 -29 42 -39 48 -23 102 -59 102 -69 0 -8 -42 11
-50 24 -3 4 -18 11 -33 14 -35 9 -36 -10 -1 -46 19 -20 28 -42 32 -78 4 -44 8
-51 38 -67 19 -10 36 -25 38 -34 3 -8 8 -26 11 -39 5 -16 4 -21 -4 -17 -6 4
-11 18 -11 31 0 25 -33 55 -60 55 -8 0 -28 -10 -43 -23 -23 -18 -30 -34 -35
-72 -5 -46 -6 -48 -13 -21 -9 34 11 81 48 112 23 18 25 24 18 72 -5 36 -13 57
-28 67 -25 18 -41 20 -31 4 4 -7 1 -10 -7 -7 -8 3 -16 18 -19 34 -8 45 -54 98
-110 124 -27 13 -50 28 -50 33 0 10 -81 86 -92 87 -5 0 -8 -43 -8 -95 0 -123
23 -187 81 -230 30 -22 51 -51 82 -115 22 -47 49 -96 59 -109 17 -22 17 -26 3
-34 -21 -12 -22 -11 -60 77 -37 85 -62 120 -109 152 -26 18 -39 41 -67 116
-28 78 -34 106 -34 175 0 49 -4 83 -10 83 -27 0 -78 -45 -106 -95 -17 -30 -35
-53 -40 -50 -9 6 -2 30 18 60 20 30 16 55 -9 55 -32 1 -5 15 44 24 62 11 116
95 104 159 -8 44 -50 106 -123 185 -72 76 -103 82 -151 28 -25 -29 -31 -46
-37 -108 -4 -41 -24 -125 -47 -193 -47 -142 -47 -157 12 -285 37 -79 41 -97
35 -135 -4 -29 -2 -52 6 -67 7 -13 12 -30 11 -40 -9 -55 55 -118 119 -118 15
0 31 -5 35 -12 4 -7 3 -8 -4 -4 -23 14 -11 -14 12 -29 32 -21 126 -11 126 14
0 9 24 39 53 66 28 27 46 43 40 35 -19 -21 -16 -33 7 -27 11 3 20 1 20 -4 0
-5 -12 -9 -27 -9 -37 -1 -71 -28 -82 -67 -13 -44 18 -73 80 -73 24 0 50 -4 57
-8 7 -5 -16 -7 -50 -4 -53 3 -67 8 -87 30 -21 23 -31 27 -73 24 -35 -3 -56 2
-81 17 -32 20 -47 19 -47 -1 0 -5 18 -27 40 -49 39 -39 40 -39 65 -23 23 15
25 15 19 0 -3 -9 -12 -16 -20 -16 -20 0 -17 -23 6 -53 17 -22 25 -25 45 -17
20 7 29 4 57 -23 19 -18 40 -41 47 -52 8 -11 -4 -1 -27 23 -52 53 -92 56 -105
7 -4 -18 -5 -17 -6 3 -1 29 -42 86 -119 171 l-59 64 -6 -89 c-9 -122 4 -146
151 -294 109 -110 122 -120 156 -120 20 0 59 11 86 25 56 28 90 32 90 10 0 -8
-5 -15 -11 -15 -6 0 -25 -10 -42 -22 -16 -12 -58 -32 -91 -44 -58 -20 -62 -24
-78 -70 -9 -27 -22 -76 -29 -109 -11 -53 -10 -65 5 -96 9 -20 37 -50 62 -67
49 -35 64 -60 43 -72 -12 -8 -36 8 -106 72 -42 37 -47 88 -27 242 l18 139 -35
30 c-100 87 -211 205 -231 245 -16 34 -23 72 -27 147 -7 114 -22 149 -70 160
-17 4 -35 4 -40 1 -5 -4 -22 -43 -37 -89 -22 -64 -28 -105 -31 -187 -6 -220
-3 -234 61 -250 109 -27 150 -44 185 -76 l36 -35 -51 31 c-55 34 -134 52 -134
31 0 -7 9 -29 20 -51 11 -21 24 -67 30 -102 5 -35 12 -73 15 -84 5 -16 -1 -27
-23 -43 -41 -29 -47 -26 -21 8 19 26 20 34 11 95 -18 111 -71 196 -133 211
-24 6 -28 1 -62 -73 -45 -96 -65 -180 -51 -219 5 -17 30 -41 59 -60 107 -69
108 -70 102 -132 -3 -31 0 -76 5 -100 9 -34 8 -45 -3 -52 -18 -11 -30 35 -29
108 2 84 -14 102 -124 146 -108 43 -124 41 -152 -18 -18 -39 -43 -67 -99 -111
l-39 -32 27 -41 c39 -59 34 -85 -5 -28 -36 52 -43 55 -53 30 -15 -40 -54 -182
-64 -237 -6 -33 -13 -62 -16 -64 -11 -12 -4 78 11 127 10 34 13 67 9 92 -7 39
-7 39 -43 34 l-37 -6 41 21 c23 12 62 40 87 63 25 23 64 57 87 76 24 19 50 53
61 77 12 29 34 55 64 76 28 20 48 42 51 58 14 70 38 153 66 220 29 71 37 117
54 300 l7 75 -50 -42 c-28 -24 -68 -69 -89 -100 -21 -32 -58 -80 -81 -107 -50
-56 -93 -136 -94 -174 -1 -15 -5 -38 -10 -52 -7 -19 -8 -16 -4 16 5 41 4 42
-32 57 -35 13 -39 13 -65 -6 -15 -11 -28 -29 -28 -39 0 -9 -11 -25 -25 -34
-14 -9 -25 -25 -25 -35 0 -10 -5 -21 -11 -25 -13 -8 -3 35 12 50 15 16 10 26
-11 26 -11 0 -20 4 -20 9 0 6 12 6 29 1 32 -9 41 -5 41 17 0 8 12 25 28 38 22
21 34 24 68 19 40 -6 41 -5 62 37 23 46 21 59 -9 59 -24 0 -75 -25 -82 -40 -3
-6 -4 -5 -3 2 1 7 20 23 40 34 35 20 37 23 20 33 -23 15 -9 10 30 -9 27 -14
29 -13 77 37 51 54 64 93 30 93 -10 0 -25 -7 -32 -17 -24 -28 -70 -41 -129
-36 -55 5 -56 5 -80 -31 -30 -43 -39 -47 -109 -52 -71 -6 -61 4 14 14 52 6 61
11 77 38 17 28 17 33 2 71 -9 23 -26 45 -40 52 -13 6 -24 15 -24 21 0 19 52
-23 76 -62 24 -37 26 -38 85 -38 69 0 89 8 113 46 18 26 17 26 -6 19 -21 -7
-22 -6 -8 10 11 13 23 15 51 11 24 -4 39 -2 41 5 2 7 23 19 47 28 33 12 49 26
68 61 14 25 31 52 38 60 20 24 65 185 75 268 6 42 17 104 25 137 18 75 18 153
0 230 -23 95 -19 152 20 271 19 58 35 112 35 119 0 7 16 36 35 64 27 38 35 61
35 93 -1 143 -87 55 -225 -229 -25 -51 -50 -114 -56 -140 -6 -27 -20 -70 -31
-98 -73 -184 -120 -378 -100 -418 16 -33 35 -209 23 -216 -5 -3 -14 -22 -20
-41 l-11 -35 5 32 c3 18 8 47 11 64 l7 31 -29 -17 -29 -17 28 24 c27 24 28 27
18 64 -6 21 -12 53 -13 69 -3 30 -4 30 -63 30 l-60 0 -26 -49 c-14 -28 -24
-59 -21 -72 2 -13 -7 -43 -22 -70 -17 -31 -26 -62 -26 -92 0 -25 -3 -42 -7
-38 -10 9 -4 99 8 110 18 19 9 25 -23 15 -18 -5 -34 -5 -37 0 -4 4 -13 11 -21
14 -8 4 0 4 18 1 18 -3 47 0 63 6 24 10 29 18 29 45 0 44 57 155 79 155 37 0
79 22 90 48 7 14 15 57 18 94 5 61 4 68 -12 68 -53 0 -114 -73 -116 -139 l0
-26 -10 23 c-6 17 -5 30 6 45 8 12 15 28 15 37 0 8 14 27 32 42 36 29 33 41
-8 41 -20 -1 -23 2 -12 8 8 5 30 3 50 -3 50 -15 66 -6 89 49 11 27 29 66 39
88 10 22 22 64 26 93 6 47 5 52 -13 52 -26 0 -44 -21 -81 -95 -48 -94 -52 -98
-134 -115 -69 -14 -74 -17 -88 -50 -50 -118 -86 -175 -114 -182 -15 -4 -36
-14 -45 -23 -9 -9 -31 -25 -49 -36 -18 -11 -39 -34 -47 -52 l-14 -32 -1 28 c0
15 -6 27 -12 28 -8 0 -7 3 2 6 21 7 90 53 120 79 14 12 36 25 48 29 17 5 32
26 53 72 16 36 29 73 29 82 0 25 -94 104 -141 118 -36 11 -43 10 -77 -13 -20
-14 -45 -35 -56 -47 l-18 -22 15 26 c12 20 13 29 4 38 -8 8 -3 11 20 11 17 0
36 6 42 14 10 12 3 22 -39 55 -63 50 -57 53 13 7 29 -18 68 -36 88 -40 21 -4
52 -17 71 -29 88 -58 91 -58 170 -46 40 7 81 19 90 27 24 20 81 161 73 180 -6
15 -9 14 -25 -5 -9 -12 -20 -19 -24 -16 -3 3 -1 12 5 19 7 9 6 21 -6 41 -11
17 -12 21 -2 11 19 -24 123 -25 155 -2 13 9 47 66 77 127 46 96 56 125 65 204
12 98 8 133 -16 133 -49 0 -154 -101 -154 -148 0 -15 5 -33 12 -40 9 -9 9 -12
0 -12 -7 0 -12 -6 -12 -14 0 -8 -4 -18 -10 -21 -6 -4 -7 5 -4 23 10 49 -13 46
-40 -5 -29 -58 -94 -135 -107 -127 -5 3 -22 -9 -39 -27 -16 -18 -32 -30 -36
-27 -7 7 66 77 82 78 6 0 20 10 31 23 26 28 76 127 65 127 -5 0 -37 -11 -71
-26 -67 -27 -68 -27 -85 8 -16 32 -70 32 -119 1 -22 -14 -41 -22 -43 -20 -3 3
15 17 39 33 42 26 44 30 40 64 -4 24 -1 40 8 45 9 6 11 4 6 -8 -3 -8 -2 -28 2
-44 6 -21 14 -28 34 -28 14 -1 34 -11 45 -25 l19 -24 47 18 c71 27 103 58 110
108 5 41 18 263 31 546 l6 132 -479 0 -480 0 -196 321 c-108 176 -196 325
-196 330 0 5 678 9 1705 9 938 0 1705 -3 1705 -7z m-905 -2290 c18 -28 18 -28
-2 -10 -11 9 -23 14 -27 10 -4 -4 -4 0 0 10 8 22 9 22 29 -10z m-1768 -39 c-3
-3 -12 -4 -19 -1 -8 3 -5 6 6 6 11 1 17 -2 13 -5z m30 -96 c-3 -8 -6 -5 -6 6
-1 11 2 17 5 13 3 -3 4 -12 1 -19z m1573 -62 c0 -3 -4 -8 -10 -11 -5 -3 -10
-1 -10 4 0 6 5 11 10 11 6 0 10 -2 10 -4z m-344 -201 c10 -8 15 -14 9 -14 -5
0 -19 6 -29 14 -11 8 -15 15 -10 15 6 0 19 -7 30 -15z m-12 -194 c-7 -9 -24
13 -24 32 0 21 1 21 13 -3 8 -14 12 -27 11 -29z"/>
</g>
</svg>
